<?xml version="1.0" standalone="no"?><!DOCTYPE svg PUBLIC "-//W3C//DTD SVG 1.1//EN" "http://www.w3.org/Graphics/SVG/1.1/DTD/svg11.dtd"><svg t="1762083986576" class="icon" viewBox="0 0 1024 1024" version="1.1" xmlns="http://www.w3.org/2000/svg" p-id="5229" xmlns:xlink="http://www.w3.org/1999/xlink" width="32" height="32"><path d="M874.666667 469.333333h85.333333a64 64 0 0 1 0 128h-85.333333a64 64 0 0 1 0-128z m-810.666667 0h85.333333a64 64 0 0 1 0 128h-85.333333a64 64 0 0 1 0-128z" fill="#000000" opacity=".3" p-id="5230"></path><path d="M512 682.666667a128 128 0 1 0 0-256 128 128 0 0 0 0 256z m0 85.333333a213.333333 213.333333 0 1 1 0-426.666667 213.333333 213.333333 0 0 1 0 426.666667z" fill="#000000" p-id="5231"></path></svg>