<?xml version="1.0" standalone="no"?><!DOCTYPE svg PUBLIC "-//W3C//DTD SVG 1.1//EN" "http://www.w3.org/Graphics/SVG/1.1/DTD/svg11.dtd"><svg t="1762670389946" class="icon" viewBox="0 0 1024 1024" version="1.1" xmlns="http://www.w3.org/2000/svg" p-id="2483" xmlns:xlink="http://www.w3.org/1999/xlink" width="32" height="32"><path d="M898.443 864.244l-34.198 30.779H576.977v-61.557h256.489V703.511H238.412c-6.84 0-12.539 1.14-17.099 3.42-13.679 6.84-22.799 15.959-27.359 27.359-2.28 6.84-3.42 12.539-3.42 17.099v34.198c0 4.56 1.14 10.26 3.42 17.099 4.56 11.399 13.679 20.519 27.359 27.359 4.56 2.28 10.26 3.42 17.099 3.42h17.099v61.557h-17.099c-13.679 0-27.359-2.28-41.038-6.84-29.639-11.4-50.158-31.919-61.557-61.557-6.84-13.679-10.26-27.359-10.26-41.038V176.855c2.28-13.679 5.7-27.359 10.26-41.038 11.399-29.639 31.919-51.298 61.557-64.977 13.679-4.56 27.359-6.84 41.038-6.84h625.832l34.198 30.779V864.244z m-64.977-225.71V125.557H255.511v512.977h577.955zM320.489 255.511h64.977v-64.977h-64.977v64.977z m0 126.535h64.977v-61.557h-64.977v61.557zM385.466 512h-64.977v-64.977h64.977V512z m109.435 448H512V768.489H320.489V960h17.099l78.656-95.756L494.901 960z" p-id="2484" fill="#2c2c2c"></path></svg>